<svg xmlns="http://www.w3.org/2000/svg" version="1.1" xmlns:xlink="http://www.w3.org/1999/xlink" width="1000" height="1000"><g clip-path="url(#SvgjsClipPath1013)"> <g transform="matrix(1.2962962962962963,0,0,1.2962962962962963,150,150)"><svg xmlns="http://www.w3.org/2000/svg" width="540" height="540" viewBox="0 0 540 540" fill="none"><path fill-rule="evenodd" clip-rule="evenodd" d="M188.655 513.219C169.573 528.956 140.572 515.551 140.572 490.994V457.879H135.385C71.6594 457.879 20 406.842 20 343.886V133.993C20 71.0365 71.6595 20 135.385 20H404.615C468.341 20 520 71.0365 520 133.993V343.886C520 406.842 468.341 457.879 404.615 457.879H255.758L188.655 513.219ZM166.52 489.133C166.52 492.188 170.115 493.868 172.506 491.931L248.022 430.738H406.447C453.988 430.738 492.527 392.663 492.527 345.695V132.184C492.527 85.2161 453.988 47.1413 406.447 47.1413H133.553C86.0121 47.1413 47.4725 85.2161 47.4725 132.184V345.695C47.4725 392.663 86.0121 430.738 133.553 430.738H166.52V489.133Z" fill="#6366F1"></path><path d="M446.335 225.68C452.086 227.751 455.92 232.93 455.92 240.179C455.92 247.429 452.086 252.607 446.335 254.679H398.41C392.659 252.607 388.824 247.429 388.824 240.179C388.824 232.93 392.659 227.751 398.41 225.68H446.335Z" fill="#0D9488"></path><path d="M143.445 225.68C149.196 227.751 153.03 232.93 153.03 240.179C153.03 247.429 149.196 252.607 143.445 254.679H95.5192C89.7681 252.607 85.9341 247.429 85.9341 240.179C85.9341 232.93 89.7681 227.751 95.5192 225.68H143.445Z" fill="#0D9488"></path><path d="M335.148 178.039C337.202 164.723 342.337 163.54 349.526 163.54C356.715 163.54 361.849 164.723 363.903 178.039V304.391C361.849 317.706 356.715 318.89 349.526 318.89C342.337 318.89 337.202 317.706 335.148 304.391V178.039Z" fill="#0D9488"></path><path d="M335.148 178.039C337.202 164.723 342.337 163.54 349.526 163.54C356.715 163.54 361.849 164.723 363.903 178.039V304.391C361.849 317.706 356.715 318.89 349.526 318.89C342.337 318.89 337.202 317.706 335.148 304.391V178.039Z" fill="#0D9488"></path><path d="M229.711 130.398C230.67 120.042 236.9 115.899 244.089 115.899C251.278 115.899 257.508 120.042 258.467 130.398V349.96C257.508 360.317 251.278 364.46 244.089 364.46C236.9 364.46 230.67 360.317 229.711 349.96V130.398Z" fill="#0D9488"></path><path d="M229.711 130.398C230.67 120.042 236.9 115.899 244.089 115.899C251.278 115.899 257.508 120.042 258.467 130.398V349.96C257.508 360.317 251.278 364.46 244.089 364.46C236.9 364.46 230.67 360.317 229.711 349.96V130.398Z" fill="#0D9488"></path><path d="M283.388 204.966C285.305 196.8 290.098 192.538 296.807 192.538C303.517 192.538 308.31 196.8 310.227 204.966V275.392C308.31 283.559 303.517 287.82 296.807 287.82C290.098 287.82 285.305 283.559 283.388 275.392V204.966Z" fill="#0D9488"></path><path d="M177.951 178.039C178.91 167.682 184.661 163.54 191.371 163.54C198.08 163.54 203.831 167.682 204.79 178.039V302.319C203.831 312.676 198.08 316.819 191.371 316.819C184.661 316.819 178.91 312.676 177.951 302.319V178.039Z" fill="#0D9488"></path></svg></g></g><defs><clipPath id="SvgjsClipPath1013"><rect width="1000" height="1000" x="0" y="0" rx="350" ry="350"></rect></clipPath></defs></svg>