<svg xmlns="http://www.w3.org/2000/svg" width="1595" height="540" viewBox="0 0 1595 540" fill="none"><metadata><rdf:RDF xmlns:rdf="http://www.w3.org/1999/02/22-rdf-syntax-ns#" xmlns:dc="http://purl.org/dc/elements/1.1/"><rdf:Description><dc:creator>RealFaviconGenerator</dc:creator><dc:source>https://realfavicongenerator.net</dc:source></rdf:Description></rdf:RDF></metadata><path fill-rule="evenodd" clip-rule="evenodd" d="M186.635 513.219C167.782 528.956 139.128 515.551 139.128 490.994V457.879H134.003C71.0407 457.879 20 406.842 20 343.886V133.993C20 71.0365 71.0407 20 134.003 20H400.009C462.97 20 514.011 71.0365 514.011 133.993V343.886C514.011 406.842 462.97 457.879 400.009 457.879H252.934L186.635 513.219ZM164.765 489.133C164.765 492.188 168.317 493.868 170.679 491.931L245.291 430.738H401.818C448.79 430.738 486.868 392.663 486.868 345.695V132.184C486.868 85.2161 448.79 47.1413 401.818 47.1413H132.193C85.2214 47.1413 47.1435 85.2161 47.1435 132.184V345.695C47.1435 392.663 85.2214 430.738 132.193 430.738H164.765V489.133Z" fill="#6366F1"></path><path d="M649.757 140.846L714.965 345.806H717.468L782.808 140.846H846.04L753.036 410.614H679.529L586.394 140.846H649.757Z" fill="#6366F1"></path><path d="M942.349 414.565C921.886 414.565 904.19 410.219 889.26 401.525C874.418 392.743 862.957 380.537 854.878 364.906C846.798 349.187 842.758 330.966 842.758 310.241C842.758 289.341 846.798 271.076 854.878 255.445C862.957 239.726 874.418 227.519 889.26 218.826C904.19 210.044 921.886 205.654 942.349 205.654C962.811 205.654 980.463 210.044 995.305 218.826C1010.24 227.519 1021.74 239.726 1029.82 255.445C1037.9 271.076 1041.94 289.341 1041.94 310.241C1041.94 330.966 1037.9 349.187 1029.82 364.906C1021.74 380.537 1010.24 392.743 995.305 401.525C980.463 410.219 962.811 414.565 942.349 414.565ZM942.612 371.097C951.921 371.097 959.693 368.463 965.929 363.194C972.164 357.837 976.863 350.548 980.024 341.328C983.274 332.107 984.898 321.613 984.898 309.846C984.898 298.079 983.274 287.585 980.024 278.364C976.863 269.144 972.164 261.855 965.929 256.498C959.693 251.142 951.921 248.463 942.612 248.463C933.215 248.463 925.311 251.142 918.9 256.498C912.577 261.855 907.791 269.144 904.541 278.364C901.38 287.585 899.799 298.079 899.799 309.846C899.799 321.613 901.38 332.107 904.541 341.328C907.791 350.548 912.577 357.837 918.9 363.194C925.311 368.463 933.215 371.097 942.612 371.097Z" fill="#6366F1"></path><path d="M1166.14 414.565C1145.42 414.565 1127.59 410.175 1112.66 401.393C1097.82 392.524 1086.4 380.23 1078.41 364.511C1070.5 348.792 1066.55 330.702 1066.55 310.241C1066.55 289.517 1070.55 271.339 1078.54 255.708C1086.62 239.989 1098.08 227.739 1112.92 218.958C1127.76 210.088 1145.42 205.654 1165.88 205.654C1183.53 205.654 1198.99 208.859 1212.25 215.269C1225.51 221.68 1236 230.681 1243.73 242.272C1251.46 253.864 1255.72 267.475 1256.51 283.106H1203.55C1202.06 273.008 1198.11 264.885 1191.7 258.738C1185.38 252.503 1177.08 249.385 1166.8 249.385C1158.11 249.385 1150.51 251.756 1144.01 256.498C1137.6 261.153 1132.59 267.958 1128.99 276.915C1125.39 285.873 1123.59 296.718 1123.59 309.451C1123.59 322.36 1125.35 333.337 1128.86 342.382C1132.46 351.426 1137.51 358.32 1144.01 363.062C1150.51 367.804 1158.11 370.175 1166.8 370.175C1173.21 370.175 1178.96 368.858 1184.06 366.223C1189.24 363.589 1193.5 359.769 1196.84 354.763C1200.26 349.67 1202.5 343.567 1203.55 336.454H1256.51C1255.63 351.909 1251.42 365.521 1243.86 377.288C1236.4 388.967 1226.08 398.1 1212.91 404.686C1199.73 411.272 1184.15 414.565 1166.14 414.565Z" fill="#6366F1"></path><path d="M1344.85 293.644V410.614H1288.73V140.846H1343.27V243.985H1345.64C1350.21 232.042 1357.58 222.69 1367.77 215.928C1377.96 209.078 1390.74 205.654 1406.11 205.654C1420.16 205.654 1432.41 208.727 1442.86 214.874C1453.4 220.933 1461.57 229.671 1467.36 241.087C1473.25 252.415 1476.14 265.982 1476.06 281.789V410.614H1419.94V291.8C1420.03 279.33 1416.86 269.627 1410.45 262.689C1404.13 255.752 1395.26 252.283 1383.84 252.283C1376.2 252.283 1369.44 253.908 1363.56 257.157C1357.76 260.406 1353.19 265.148 1349.86 271.383C1346.61 277.53 1344.94 284.951 1344.85 293.644Z" fill="#6366F1"></path><path d="M1516.51 410.614V208.288H1572.63V410.614H1516.51ZM1544.7 182.207C1536.36 182.207 1529.2 179.441 1523.23 173.908C1517.34 168.288 1514.4 161.57 1514.4 153.755C1514.4 146.027 1517.34 139.397 1523.23 133.865C1529.2 128.245 1536.36 125.435 1544.7 125.435C1553.04 125.435 1560.16 128.245 1566.04 133.865C1572.01 139.397 1575 146.027 1575 153.755C1575 161.57 1572.01 168.288 1566.04 173.908C1560.16 179.441 1553.04 182.207 1544.7 182.207Z" fill="#6366F1"></path><path d="M441.229 225.68C446.911 227.751 450.699 232.93 450.699 240.179C450.699 247.429 446.911 252.607 441.229 254.679H393.877C388.195 252.607 384.407 247.429 384.407 240.179C384.407 232.93 388.195 227.751 393.877 225.68H441.229Z" fill="#0D9488"></path><path d="M141.966 225.68C147.649 227.751 151.437 232.93 151.437 240.179C151.437 247.429 147.648 252.607 141.966 254.679H94.6147C88.9325 252.607 85.1443 247.429 85.1443 240.179C85.1443 232.93 88.9325 227.751 94.6147 225.68H141.966Z" fill="#0D9488"></path><path d="M331.373 178.039C333.403 164.723 338.476 163.54 345.579 163.54C352.681 163.54 357.755 164.723 359.784 178.039V304.391C357.755 317.706 352.681 318.89 345.579 318.89C338.476 318.89 333.403 317.706 331.373 304.391V178.039Z" fill="#0D9488"></path><path d="M331.373 178.039C333.403 164.723 338.476 163.54 345.579 163.54C352.681 163.54 357.755 164.723 359.784 178.039V304.391C357.755 317.706 352.681 318.89 345.579 318.89C338.476 318.89 333.403 317.706 331.373 304.391V178.039Z" fill="#0D9488"></path><path d="M227.199 130.398C228.146 120.042 234.302 115.899 241.405 115.899C248.508 115.899 254.663 120.042 255.61 130.398V349.96C254.663 360.317 248.508 364.459 241.405 364.459C234.302 364.459 228.146 360.317 227.199 349.96V130.398Z" fill="#0D9488"></path><path d="M227.199 130.398C228.146 120.042 234.302 115.899 241.405 115.899C248.508 115.899 254.663 120.042 255.61 130.398V349.96C254.663 360.317 248.508 364.459 241.405 364.459C234.302 364.459 228.146 360.317 227.199 349.96V130.398Z" fill="#0D9488"></path><path d="M280.233 204.966C282.127 196.8 286.863 192.538 293.492 192.538C300.121 192.538 304.856 196.8 306.75 204.966V275.392C304.856 283.559 300.121 287.82 293.492 287.82C286.863 287.82 282.127 283.559 280.233 275.392V204.966Z" fill="#0D9488"></path><path d="M176.059 178.039C177.007 167.682 182.689 163.54 189.318 163.54C195.947 163.54 201.629 167.682 202.576 178.039V302.319C201.629 312.676 195.947 316.819 189.318 316.819C182.689 316.819 177.007 312.676 176.059 302.319V178.039Z" fill="#0D9488"></path></svg>